<?xml version="1.0" encoding="utf-8"?>
<!-- Generator: Adobe Illustrator 26.5.0, SVG Export Plug-In . SVG Version: 6.00 Build 0)  -->
<svg version="1.1" id="Layer_1" xmlns="http://www.w3.org/2000/svg" xmlns:xlink="http://www.w3.org/1999/xlink" x="0px" y="0px"
	 viewBox="0 0 520 1585" style="enable-background:new 0 0 520 1585;" xml:space="preserve">
<style type="text/css">
	.st0{fill:url(#SVGID_1_);}
	.st1{fill:none;stroke:#919191;stroke-width:1.5;stroke-miterlimit:10;}
	.st2{fill:none;stroke:#919191;stroke-miterlimit:10;}
	.st3{font-family:'Roboto-Light';}
	.st4{font-size:14px;}
	.st5{fill:none;stroke:#000000;stroke-width:0.5;stroke-miterlimit:10;}
	.st6{font-family:'Roboto-Medium';}
	.st7{fill:none;stroke:#FD3C00;stroke-width:0.75;stroke-miterlimit:10;}
	.st8{fill:#FD3C00;}
</style>
<g>
	
		<linearGradient id="SVGID_1_" gradientUnits="userSpaceOnUse" x1="269.3144" y1="111.8617" x2="269.3144" y2="202.3314" gradientTransform="matrix(1 0 0 -1 0 1584.5511)">
		<stop  offset="0" style="stop-color:#FFFFFF"/>
		<stop  offset="1" style="stop-color:#F3CB9F"/>
	</linearGradient>
	<rect x="-18.2" y="1418.5" class="st0" width="575.1" height="85.8"/>
	<path class="st1" d="M-9.8,1434.9c0,0,12.1-2.5,20.4-2.5s20.2-0.6,27.6,0c7.4,0.6,18,1.1,18,1.1"/>
	<path class="st1" d="M54.1,1436.2c0,0,2.6-1.8,3-5.9c0.4-4.1,0.3-15.9,1.9-18.5c1.6-2.6,1.5-3.8,2.5-6.8c1-3,1.8-4.5,2.9-6.7
		c1.1-2.2,0-8.2,2.2-10.2s7.1-7.2,8.3-9.5s1.2-3.1,1.2-3.1s-0.8,18.1-0.8,21.8c0,3.7,1,3.4,1.8,5.4s2.5,13.1,0.5,14.9
		c-1.9,1.8-3.1,10.5-1.9,12.5c1.2,2,6.8,1.4,9.4,4.1s5.2,4.7,8.3,4.4"/>
	<path class="st1" d="M81.2,1432.2c0,0,12.9-0.3,17.3,0c4.4,0.3,29.8,0.8,36,1.3c6.2,0.5,33.7,2.5,37.9,1.4
		c4.2-1.1,8.4-4.5,10.5-4.1c2,0.4,2.9,1.5,2.9,1.5"/>
	<path class="st1" d="M180.3,1436.9c0,0,6.5-4.5,9.9-11.5c3.4-7,6.3-13.5,7.2-16.3s1.2-4.1,1.5-4.4c0.3-0.3,0.2-5.9,1.8-6.8
		c1.6-0.9,2.1-1,2.1-1s4.4-41.8,4.4-44.6c0-2.7-1-4.5-1-4.5s0.5-2.7,1-4.2s-1.9-3.3-1.8-3.7c0.1-0.4,1.9-1.2,2.5-4.8
		s5.6-58.6,5.4-63.5c-0.1-4.9-1.9-7.1-1.9-7.1s2.5-1,2.6-2.6c0.1-1.6-2.3-3.1-2.3-3.1s2.7-4,3.7-11.2c1-7.2,2.6-36.8,1.2-42.6"/>
	<path class="st1" d="M209.4,1443.3c0,0,12.7-23.7,13.3-28.8c0.6-5.1,2.6-4.3,2-5.9s-0.6-3.3-0.6-3.5c0-0.2,2.5-1.6,1.8-3.7
		c-0.6-2,2.5-51.3,3.7-53.1c1.2-1.8,1.2-1.8,1.2-1.8s-1.6-1.2,0-3.3c1.6-2,1.6-2,1.6-2s-0.2-2.9-0.8-8c-0.6-5.1,3.5-57.8,4.7-62.3
		c1.2-4.5,1.2-4.5,1.2-4.5s-2.2,0.8-1.6-1.8c0.6-2.7,2.9-4,2.9-4s-1.6-3.4-1.4-10.6c0.2-7.2,0.4-41.9,2.9-46.4"/>
	<path class="st1" d="M200.9,1444.9c0,0,8.2-2.5,14.1-3.9s4.1-4.8,8.4-7.5c4.3-2.7,6.1-1.3,10.4-5c4.3-3.7,8-7.6,8-7.6
		s-0.6,5.7-4.9,9.8c-4.3,4.1-8.6,12.5-8.6,12.5"/>
	<path class="st1" d="M215.2,1432.2c0,0,6.2,1.5,6.5,2.7"/>
	<path class="st1" d="M233.4,1434.9c0.6-0.8,15.5-2.5,21.4-1.9c5.9,0.5,23.7-0.8,23.7-0.8"/>
	<path class="st1" d="M527.2,1429.5c-4.1,0.4-17.8-1.6-21.9-0.8c-4.1,0.8-16.6,2.3-19.8,0.9c-3.3-1.4-7.6-11.4-8-14.3
		s-1.2-2.7-1.2-6.3s2.2-22.7,2.7-24.1s-0.4-1.8-1.2-3.9c-0.8-2-3.3-21.7-1.6-19.4c1.6,2.2,0-4.7-1.4-8.2c-1.4-3.5,0.6-9.2,1.2-14.5
		c0.6-5.3-9.2-20.2-9.2-20.2s1,8.2-1,14.9s-3.1,10-2.9,11.6c0.2,1.6,0.2,6.1,0,12.7c-0.2,6.5-0.6,4.5-1.4,10.6s0.8,19.6,0,23.3
		c-0.8,3.7-2.2,3.5-2.2,3.5s0.2,8.4-2.7,19.2c-2.9,10.8-13.5,12.5-11,13.9c0,0-12.6,1.4-20.4,0.4c-7.8-1-11.9,0.8-17.6-0.6
		c-5.7-1.4-16.3,0.2-19.6-2.5c-3.3-2.7-10.8-5.9-11.9-11.2c-1-5.3-1.8-10,1.4-12.1c0,0-2.7-0.4-7.6,12.3
		c-4.9,12.7-15.1,17.4-19.8,18.3c-4.7,0.9-11,0-11,0c-6.9,0.9-33.9-1.5-37.2-2.2c-3.3-0.6-2.7-13.9-2.5-18.2c0.2-4.3,1-8.6,0-11
		c-1-2.5-1.4-2.7-1.2-6.7c0.2-4.1-4.1-9.6-5.1-10.4c-1-0.8-2,1.2-3.3,5.1c-1.2,3.9-5.3,7.2-8.4,12.3c-3.1,5.1-1.2,22.5-1.8,27
		c-0.6,4.5-4.3,6.4-4.3,6.4"/>
	<path class="st1" d="M533.4,1448c0,0-39.5-2.7-48.5-1.9c-9,0.8-4.1,4.7-3.7,6.3s1.4,8.2,3.9,11.6c2.5,3.5,9.2,9.8,12.7,11.4
		c3.5,1.6,8.7,2,8.7,2"/>
	<path class="st1" d="M418.5,1476.2c0,0,3.5-3.1,6.3-5.3c2.9-2.2,4.7,0,8.4,0s5.3-3.1,10.6-6.7c5.3-3.7,8.8-3.1,12.3-6.3
		c3.5-3.3,3.1-8.8,3.1-8.8s1.2,0.2-3.3,0s-29.8,0.2-33.9,1c-4.1,0.8-32.1,1.2-36,0.8c-3.9-0.4-8.4-4.6-10.2-1.9
		c-1.8,2.7,0,5,2.2,8.4c2.2,3.5,6.5,2.9,5.3,7.4s-6,0.8-5.5,6.9"/>
	<path class="st1" d="M351.9,1468.8c0,0,7.8-14.3,6.5-17.6s-5.7-6-8.6-5.3c-2.9,0.8-18,2.9-22.9,2.1s-13.9-1.3-14.7,1.4
		c-0.8,2.7-2.5-0.2-0.8,2.7s5.3,5.8,5.7,9.7s-4.1,8.9-4.1,8.9"/>
	<path class="st1" d="M292.6,1472.1c0,0,5.5-6.7,6.5-10c1-3.3-1-4.1,0-8c1-3.9,1-2.2,1-3.9s-16.1-1.2-23.1-0.8
		c-6.9,0.4-13.1,2.5-19,2.9c-5.9,0.4-14.1,0-16.3,1.2s-8.4,2.2-8.4,2.2s0.4,3.9,2.6,6.1c2.2,2.1,4.1,1.3,8.2,3.1
		c4.1,1.8,6.1,3.7,8.4,5.7c2.2,2,10,5.9,15.7,6.9s0-0.4,6.9,1.4c6.9,1.8,8.5,1,8.5,1"/>
	<path class="st1" d="M114.6,1548.3c6.9-0.6,14.1-8.8,16.1-13.3s10-9,12.5-10c2.5-1,4.5-3.9,6.5-8.8c2-4.9,6.5-11.9,11.2-15.3
		c4.7-3.5,17.8-23.1,19.3-26.4c1.5-3.3,1.6-10.2,1.6-12.7c0-2.5-2.5-5-12.3-6.4c-9.8-1.4-33.3-1.9-45-0.4s-23.9-1-32.1-1
		s-14.1,0.5-14.1,0.5s-1,0.4,0,3.8s0,5,3.5,6.4s2.7,5,3.5,6c0.8,1,3.1,5.3,10.8,6.7s14.7-1.8,18,3.9"/>
	<path class="st1" d="M-9.8,1451.6c0,0,25.7-3.6,33-2.6c7.3,1,2.8,3.4,13.2,2.6c10.4-0.8,12.5-3.2,17-1.3c4.5,1.9,5.7,1.5,5.7,4.4
		s1.4,6.5-0.8,9.9s-6.1,6.4-10,9.1c-3.9,2.7-3.9,6.3-6.7,8.6s-9,3.3-16.6,2"/>
	<path class="st1" d="M39.7,1483.3c0,0-2.8,5.7-8.1,10.2s-9,6.5-14.7,7.6c-5.7,1-14.1-4.9-18.6,0"/>
	<path class="st1" d="M28,1496.4c0,0-9.3,9.2-15.2,13.9s-13.5,6.9-13.5,6.9"/>
	<path class="st1" d="M78,1457.4c0,0,10.3,3.1,12.7,6.1s0.8,5.1,11.2,5.5c10.4,0.4,14.7-5.7,19-2.2"/>
	<path class="st1" d="M286.5,1515.2c0,0-5.1,1.2-17.4-2.5s-4.5-2.2-10.6-7.2c-6.1-4.9-5.9-3.1-11.4-7.4
		c-5.5-4.3-12.3-13.5-15.1-19.2c-2.9-5.7-4.5-3.5-8.8-8.4c-4.3-4.9-5.9-10-6.1-11.4c-0.2-1.4,10.2-1,10.2-1s2,0.7,2.7,2
		c0.7,1.2,3.1,4.2,6.8,8.8c3.7,4.6,5.6,5.4,10.3,8.7c4.7,3.3,11.6,7.1,13.6,14.2"/>
	<path class="st1" d="M247,1498.2c0,0,4.5,9.6,8.9,14.1s7.4,3.1,9.7,8.4c2.2,5.3,7.4,9.4,12.3,12.9s7.3-1,11.4,4.7"/>
	<path class="st1" d="M194.2,1463.2c0,0-7.7,5.4-11.6,11.9c-3.9,6.5-10.4,20-13.1,22.3c-2.7,2.2-7.4,5.5-10.6,10.4
		c-3.3,4.9-6.7,5.7-7.8,10.4c-1,4.7-2.9,6.3-5.5,10s-8,4.9-8.8,11.6s4.5,10,1.2,17.8s-12.9,14.1-12.9,14.1"/>
	<path class="st1" d="M144.9,1529.2c0,0-1.6,7.9,0,13.4c1.6,5.5,4.8,8.4,3.8,16.3s-1.4,11.6,1.8,12.9"/>
	<path class="st1" d="M193.4,1460.6c0,0,4.3,11.3,2.1,19.6c-2.1,8.2-7.4,13.5-9.7,19.5c-2.3,5.9-6.2,10.2-9.7,12.7
		c-3.5,2.5-11.4,7.8-12.7,11s-3.5,9.6-6.3,12.7s-3.3,3.3-4.3,3.9"/>
	<path class="st1" d="M212.5,1459.4c0,0-1.2,3.5-0.8,7.5c0.4,4,1.9,13.6,5.4,19.9c3.4,6.3,2.6,7.8,7.8,11.5
		c5.2,3.7,14,8.6,16.9,11.2s5.5,3.9,7.2,8.8c1.6,4.9,4.9,9,4.9,9"/>
	<path class="st1" d="M201.8,1469.6c0,0-2.6,16-6.9,23.4c-4.3,7.4-5.9,9.7-6.9,14.2c-1,4.5-4.7,6.3-4.3,13.9c0.4,7.6,1.4,9,0.8,14.3
		c-0.6,5.3-5.3,10.2-6.1,12.9"/>
	<path class="st1" d="M184.5,1508.7c0,0-7.8,5.1-10,9.6c-2.3,4.5-1.8,9-2.5,10.9s1,7.7-1.4,14.4c-2.5,6.7-6.1,7.2-6.7,12.7"/>
	<path class="st1" d="M168.4,1520.7c0,0,4.7,11,3.5,17.6"/>
	<path class="st1" d="M206.4,1469c0,0-0.6,17.4,0,29.2s0.6,14.8,3.1,19.3s7.7,7.1,9,11.7c1.2,4.6-1.4,6,5.1,8.3
		c6.5,2.3,12.7-2.2,14.5,4.5c1.8,6.7,2.2,8.5,2.2,8.5"/>
	<path class="st1" d="M201.9,1465.5c0,0-0.4,28.8,0,33.5c0.4,4.7,1.4,7.1,0.4,16.3s-3.7,5.7-4.5,14.1c-0.8,8.4,0,3.7-1.6,10.4
		s-3.3,5.1-7.1,9.6c-3.9,4.5-8.2,5.5-8.7,11.2c-0.5,5.7,0,8.6,0,8.6"/>
	<path class="st1" d="M75.2,1460.2c0,0,7.2,7.9,7,11.1c-0.2,3.2-0.8,8.8,5.2,15.4c6.1,6.6,6.9,5.7,12,9.7c5.2,3.9,7.6,8.1,7.1,13.7"
		/>
	<path class="st1" d="M61.6,1464c0,0-0.2,12.6,2.5,17.4s2.7,0.2,3.1,7.7s-4,8.8-2.8,18.8c1.2,10-1.9,6.8,2.8,13.7s8.7,8.2,5.9,12.9"
		/>
	<path class="st1" d="M67.2,1488.5c0,0-2.6,10.5-6.5,13.3s-8.3,0-9.8,6.2c-1.5,6.2-4.6,11.3-9.2,11.8"/>
	<path class="st2" d="M53.7,1504.2c0,0-3.4,5.7-1.6,10.1c1.8,4.4,5.1,9.4,3.5,14.5c-1.7,5.1-5.1,7-5.1,7"/>
	<path class="st2" d="M79.6,1517.2c0,0-8-10.4-7.9-14.9c0.1-4.5-0.7-13.2-4.4-13.3"/>
	<path class="st2" d="M83,1479.7c0,0,8,6.5,14.5,8.2c6.5,1.7,12.8-1.7,17.2,2.9s4.4,7.9,4.4,7.9"/>
	<path class="st2" d="M33.6,1491.7c0,0-2.5,7.6-1.9,12.5c0.6,4.9,1,4.3,0.9,8.6s2.5,3.5-1,8s-5.4,4.8-5.4,4.8"/>
	<path class="st2" d="M48.2,1473.7c0,0-4.2,1.8-7.3,1.4c-3.1-0.4-7.2-1.3-10.5-0.7c-3.4,0.6-9.6,0-9.6,0"/>
	<path class="st2" d="M62.7,1477.2c0,0,1.3,4.5,0,7.7c-1.3,3.2-3.6,1.7-5.4,6.9"/>
	<path class="st1" d="M67.2,1461.9c0,0-0.3,10.1,2.9,12.6s6.6,4,7.4,7.1s-1.5,6.6,2.9,12.6c4.4,5.9,6.9,4.6,8.4,8.6"/>
	<path class="st2" d="M78.2,1490.5c0,0,0.4,2.8,1.3,8.1c0.9,5.3,3.7,3,3.4,8.6c-0.3,5.6-1.3,7.1-1.3,7.1"/>
	<path class="st2" d="M71.6,1463.2c0,0,9.7,6.3,10.6,8.9"/>
	<path class="st2" d="M50.5,1436.9c0,0-3.1,2.6-8.8,2.7s-14.2-3.6-17.3-1"/>
	<path class="st2" d="M67.2,1387.4c0,0,3.5,3.4,5.3,7.2c1.8,3.8,3.4,6.1,3.4,6.1"/>
	<path class="st2" d="M77.9,1404.7c0,0-2.9,4.1-6.3,5.8c-3.5,1.7-7.3,1.1-7.3,1.1"/>
	<path class="st2" d="M60.3,1407c0,0,4,2.3,5.5,6.3c1.4,4,1.4,8.4,4.5,10.9c3.1,2.6,5.6,2.2,5.6,2.2"/>
	<path class="st2" d="M64.3,1415.8c0,0-0.4,9.3,3.8,12c4.2,2.7,7.1,1.4,7.1,1.4"/>
	<path class="st2" d="M154.5,1507.8c0,0-10.5,1-13.7,4.7c-3.3,3.7-5.3,7.3-9.8,7.4"/>
	<path class="st2" d="M116.7,1535.8c0,0,3.3-7.4,7.1-8.5s5.1-1.9,7.3-3.1c2.2-1.3,2.8-2.3,4.6-2.4s9.7-0.4,9.9,1.8"/>
	<path class="st2" d="M122.9,1527.6c-2.3,2.7-7.7,0.9-9-0.3"/>
	<path class="st2" d="M139.6,1513.9c0,0-3.8,0.6-6.5,0"/>
	<path class="st2" d="M181.4,1469.6c0,0-4.9,5.9-9.4,8.6c-4.5,2.7-11.8,4.4-12.7,6.2c-0.9,1.8-1.4,2.5-4.2,2.3
		c-2.9-0.2-5.7,0.6-7.7,3.3s-8.9,14.6-15.3,16.8"/>
	<path class="st2" d="M129.9,1493.8c0,0,2.5-2.6,7-2.1c4.5,0.5,9.2-1.2,11.4-2.7"/>
	<path class="st2" d="M180.9,1459.4c0,0,0.6,2.1-2.6,5.2c-3.2,3.1-8,1.3-10.4,5c-2.5,3.8-3.4,7.9-7.9,8.1"/>
	<path class="st2" d="M150,1471.4c0,0,2.4,2.7,8,2.4c5.6-0.3,9.4-3.1,9.4-3.1"/>
	<path class="st2" d="M201.7,1495.8c0,0-0.8,7.1-3,11c-2.2,4-4.2,2.9-4.5,7.1c-0.2,4.2-2.5,10.1-4.8,10.5"/>
	<path class="st2" d="M199.3,1523.8c0,0-0.5,12.9,1,15.2c1.4,2.2,1.9,7.6,1.4,9.3c-0.5,1.7,0.7,8.3,3.3,10.6"/>
	<path class="st2" d="M220.1,1535.8c0,0-0.2,7.4-1.7,10.2s-1.9,6.2,0,8.9"/>
	<path class="st2" d="M225.5,1498.6c0,0-0.4,4.5,2.8,8.2c3.2,3.7,7.9,2.1,9.1,7.1c1.1,5,2.5,9.5,5.2,12.2c2.8,2.8,3.8,3.2,3.3,4.9"
		/>
	<path class="st2" d="M228.2,1506.8c0,0,2.2,2,2,6.5c-0.2,4.5,1.3,7.4,1.3,7.4"/>
	<path class="st2" d="M230.5,1476.7c0,0,4.8,2.6,6.8,4.5c1.9,1.9,8,9.2,12.5,9"/>
	<path class="st2" d="M245.6,1476.7c0,0,7.4,1,10.3,2.8s0.7,5.4,8.4,5.9"/>
	<path class="st2" d="M215.8,1484.1c0,0,1,5.2,0.5,11.1c-0.5,5.8-4,10.1-2,14.6"/>
	<path class="st2" d="M198,1407c0,0,6.7,2.8,10.6,3.1c3.9,0.2,9.9,0.2,14-1"/>
	<path class="st2" d="M225.4,1402.5c0,0-9.9,1.5-19.3,0"/>
	<path class="st2" d="M199.1,1402.9c0,0,3.2,2.5,7,2.5"/>
	<path class="st2" d="M205.3,1339.8c0,0,11.7,2.9,20.1,2.9"/>
	<path class="st2" d="M230.9,1346.4c0,0-11.4,1.8-20,0"/>
	<path class="st2" d="M211.6,1258.9c0,0,5.9,0.6,15.1,1.1c9.3,0.5,10.1,0,10.1,0"/>
	<path class="st2" d="M235,1265.9c0,0-6,1.8-11.6,1s-8.1-0.4-8.1-0.4"/>
	<path class="st2" d="M95.8,1434.9c0,0,12.3,0,17,0.3"/>
	<path class="st2" d="M74.1,1453.9c0,0,2.8-1.6,12.2-2"/>
	<path class="st2" d="M104.3,1450c0,0,17.5,0,23.8-1.1"/>
	<path class="st2" d="M281.4,1432.2c0,0-2.5,6.7-13.2,6.1"/>
	<path class="st2" d="M281.4,1401.8c0,0,11,3.2,17.1-2.2"/>
	<path class="st2" d="M283,1405.4c0,0,6.1,21,18.8,25.4"/>
	<path class="st2" d="M375,1412.8c0,0-1.5,8.6,2.6,12.7c4.1,4.1,11.4,6,18.6,6.7"/>
	<path class="st1" d="M371.1,1454.9c0,0,5.3,5.3,3.7,9.7c-1.6,4.4-2.7,9.9,0,11.6"/>
	<path class="st1" d="M361.5,1458.2c0,0-3.7,15.3-13.9,20.4"/>
	<path class="st1" d="M356.4,1470c0,0-8.4,5.5-11.9,6.3c-3.5,0.8-11,5.3-13.4,8.8c-2.4,3.5-3.1,7.7-4.9,7.6"/>
	<path class="st1" d="M341.7,1477.4c0,0-5.7,10-6.4,16c-0.7,6,2.4,7.6,1.1,13.5"/>
	<path class="st1" d="M298.9,1462.8c0,0,0.1,11.5-0.5,18.6c-0.6,7.1-2.5,14.6-8.5,16.8"/>
	<path class="st1" d="M297.8,1481.9c0,0,7.7,5.6,7.9,17.5c0.2,11.9-6.4,13.1-6.8,13.1"/>
	<path class="st1" d="M305.7,1501.4c0,0,1,14.4,5.1,17.8c4.1,3.4,10.8,2.2,7.6,6.8"/>
	<path class="st1" d="M298.9,1467.9c0,0,9.6,4.1,10.8,8.8s5.1,9.4,9.1,7.4"/>
	<path class="st1" d="M303.3,1470.6c0,0-0.8,8.8,4.3,14.8c5.1,6,9.2,4,7.8,9.6"/>
	<path class="st1" d="M338.4,1483.8c0,0,0,13.8,2.1,14.4"/>
	<path class="st1" d="M370.2,1458.7c0,0-5.6,23.6-1.8,29.8c3.8,6.2,9.6,4.5,8.7,10.7c-0.9,6.2-0.4,11.6,0.1,12.4"/>
	<path class="st2" d="M360.5,1461.4c0,0-2,25-9.8,28.8"/>
	<path class="st1" d="M367,1483.5c0,0-4.5,8.3-1.2,14.1c3.3,5.8,6.6,5.2,4.3,10.5"/>
	<path class="st1" d="M364.6,1491c0,0-1.5,9.5-7.1,13.2c-5.7,3.8-10.6,6.4-11.4,9.5"/>
	<path class="st1" d="M458.1,1455.5c0,0-3.5,16.4-6.5,20.3c-3,3.9-3.1,7.5-4.4,10.1c-1.2,2.6-5.8,5.2-10.2,7.7
		c-4.4,2.5-6.7,9.2-13.4,10.7"/>
	<path class="st1" d="M471.8,1453.1c0,0,3.1,17.9,1,24.3c-2.2,6.4-6.5,5-6.8,12.8c-0.3,7.9-4.5,15-6.7,15.8"/>
	<path class="st1" d="M461.2,1464.6c0,0-6.4,9.5-6.3,15.9c0.1,6.5,4.8,2.5,0.5,10.5c-4.2,8-5.4,5.6-6.1,10.4"/>
	<path class="st1" d="M475.5,1477.4c0,0-1.1,4.3,0.7,9.6c1.8,5.3,3.7,5.6,3.3,11.2s2.1,10,2.4,10.6"/>
	<path class="st1" d="M485.6,1469.3c0,0,4,2,4.5,9.3c0.5,7.3-1.5,8.6,1.5,13.6"/>
	<path class="st2" d="M455.8,1464.6c0,0-4.8,6-7.6,7.8c-2.7,1.8-4.8-0.8-8.7,3.8c-4,4.6-2.3,5-5,7.3"/>
	<path class="st2" d="M458,1470.8c0,0-0.1,7.1,1.2,9.4c1.3,2.3,2.6,3.4,1.9,8.2"/>
	<path class="st2" d="M483.1,1460c0,0-3,6.4-2.9,10.7c0.1,4.2,4.1,3.8,2.9,9.9"/>
	<path class="st2" d="M462.6,1341.3c0,0,6.3,11.8,13,14.8"/>
	<path class="st2" d="M473.6,1354.9c0,0-8.4,14.2-12.2,16.3"/>
	<path class="st2" d="M478.9,1384.8c0,0-14.5-8.4-16.3-14.6"/>
	<path class="st2" d="M475.6,1382.7c0,0-3.4,9.3-16.5,12.5"/>
	<path class="st2" d="M459.3,1397.3c0,0,10.6,20.3,19.6,22.4"/>
	<path class="st2" d="M459.7,1408.5c0,0-0.1,22.8-17.7,25"/>
	<path class="st2" d="M464.9,1413.6c0,0,9.5,9.1,15.4,8.9"/>
	<path class="st2" d="M515.4,1432.9c0,0-15.1,0.9-20.6,1.9c-5.5,1-19.5-1-19.5-1"/>
</g>
<image style="overflow:visible;enable-background:new    ;" width="2000" height="3793" id="AI_x5F_Image.psd" xlink:href="tree.jpg"  transform="matrix(0.2927 0 0 0.2927 -33.6837 -14.016)">
</image>
<text transform="matrix(1 0 0 1 137.8908 1268.5554)" class="st3 st4">Nodos</text>
<text transform="matrix(1 0 0 1 161.271 1374.7781)" class="st3 st4">Culmo</text>
<text transform="matrix(1 0 0 1 79.9028 1563.6276)" class="st3 st4">Raíces</text>
<text transform="matrix(1 0 0 1 419.1035 1309.8766)" class="st3 st4">Nueva sesión</text>
<text transform="matrix(1 0 0 1 276.2937 1375.6324)" class="st3 st4">Brotes</text>
<line class="st5" x1="183.9" y1="1263.6" x2="217" y2="1263.6"/>
<line class="st5" x1="401.2" y1="1443.5" x2="401.2" y2="1520.7"/>
<text transform="matrix(1 0 0 1 126.168 1217.7083)" class="st6 st4">Caña madura</text>
<g>
	<text transform="matrix(1 0 0 1 373.1854 1536.7863)" class="st3 st4">Rizomas</text>
</g>
<g>
	<text transform="matrix(1 0 0 1 437.9161 60.0107)" class="st3 st4">34m</text>
</g>
<g>
	<text transform="matrix(1 0 0 1 435.8508 963.0521)" class="st3 st4">Escala</text>
	<text transform="matrix(1 0 0 1 435.8508 979.8519)" class="st3 st4">humana</text>
</g>
<circle class="st7" cx="237.6" cy="1032.4" r="48.7"/>
<g>
	<g>
		<line class="st7" x1="237.6" y1="1081.1" x2="237.6" y2="1173.7"/>
		<g>
			<polygon class="st8" points="234.5,1171.2 235.1,1170.7 237.6,1173.4 240.1,1170.7 240.7,1171.2 237.6,1174.5 			"/>
		</g>
	</g>
</g>
</svg>
