<?xml version="1.0" encoding="utf-8"?>
<!-- Generator: Adobe Illustrator 26.5.0, SVG Export Plug-In . SVG Version: 6.00 Build 0)  -->
<svg version="1.1" id="Layer_1" xmlns="http://www.w3.org/2000/svg" xmlns:xlink="http://www.w3.org/1999/xlink" x="0px" y="0px"
	 viewBox="0 0 320 1010" style="enable-background:new 0 0 320 1010;" xml:space="preserve">
<style type="text/css">
	.st0{fill:url(#SVGID_1_);}
	.st1{fill:none;stroke:#919191;stroke-width:1.5;stroke-miterlimit:10;}
	.st2{fill:none;stroke:#919191;stroke-miterlimit:10;}
	.st3{font-family:'Roboto-Light';}
	.st4{font-size:14px;}
	.st5{fill:none;stroke:#000000;stroke-width:0.5;stroke-miterlimit:10;}
	.st6{font-family:'Roboto-Medium';}
	.st7{fill:none;stroke:#FD3C00;stroke-width:0.75;stroke-miterlimit:10;}
	.st8{fill:#FD3C00;}
</style>
<g>
	
		<linearGradient id="SVGID_1_" gradientUnits="userSpaceOnUse" x1="165.817" y1="80.847" x2="165.817" y2="137.7271" gradientTransform="matrix(1 0 0 -1 0 1010.5511)">
		<stop  offset="0" style="stop-color:#FFFFFF"/>
		<stop  offset="1" style="stop-color:#F3CB9F"/>
	</linearGradient>
	<rect x="-15" y="895.7" class="st0" width="361.6" height="54"/>
	<path class="st1" d="M-9.7,905.9c0,0,7.6-1.5,12.8-1.5s12.7-0.4,17.3,0s11.3,0.7,11.3,0.7"/>
	<path class="st1" d="M30.5,906.7c0,0,1.6-1.1,1.9-3.7s0.2-10,1.2-11.6c1-1.6,0.9-2.4,1.5-4.3c0.6-1.9,1.1-2.8,1.8-4.2
		c0.7-1.4,0-5.1,1.4-6.4c1.4-1.3,4.5-4.5,5.2-6s0.8-2,0.8-2s-0.5,11.4-0.5,13.7s0.6,2.1,1.1,3.4s1.5,8.2,0.3,9.3
		c-1.2,1.1-2,6.6-1.2,7.9c0.8,1.3,4.3,0.9,5.9,2.6c1.6,1.7,3.3,2.9,5.2,2.8"/>
	<path class="st1" d="M47.5,904.2c0,0,8.1-0.2,10.9,0c2.8,0.2,18.7,0.5,22.6,0.8c3.9,0.3,21.2,1.6,23.9,0.9c2.7-0.7,5.3-2.8,6.6-2.6
		s1.8,0.9,1.8,0.9"/>
	<path class="st1" d="M109.8,907.2c0,0,4.1-2.8,6.3-7.2c2.1-4.4,4-8.5,4.5-10.3c0.5-1.8,0.8-2.6,0.9-2.7c0.2-0.2,0.1-3.7,1.1-4.3
		c1-0.6,1.3-0.6,1.3-0.6s2.7-26.3,2.7-28s-0.6-2.8-0.6-2.8s0.3-1.7,0.6-2.7c0.3-0.9-1.2-2.1-1.1-2.3s1.2-0.8,1.5-3
		c0.3-2.2,3.5-36.8,3.4-39.9c-0.1-3.1-1.2-4.5-1.2-4.5s1.5-0.6,1.6-1.6c0.1-1-1.5-1.9-1.5-1.9s1.7-2.5,2.3-7.1
		c0.6-4.5,1.6-23.1,0.8-26.8"/>
	<path class="st1" d="M128.2,911.2c0,0,8-14.9,8.4-18.1s1.6-2.7,1.3-3.7c-0.4-1-0.4-2.1-0.4-2.2s1.5-1,1.2-2.3
		c-0.4-1.3,1.5-32.2,2.3-33.4c0.8-1.2,0.8-1.2,0.8-1.2s-1-0.8,0-2.1c1-1.3,1-1.3,1-1.3s-0.1-1.8-0.5-5c-0.4-3.2,2.2-36.4,3-39.2
		c0.8-2.8,0.8-2.8,0.8-2.8s-1.4,0.5-1-1.2c0.4-1.7,1.8-2.5,1.8-2.5s-1-2.1-0.9-6.6c0.1-4.5,0.3-26.3,1.8-29.2"/>
	<path class="st1" d="M122.8,912.2c0,0,5.1-1.5,8.9-2.4c3.7-0.9,2.6-3,5.3-4.7c2.7-1.7,3.9-0.8,6.6-3.1c2.7-2.3,5-4.8,5-4.8
		s-0.4,3.6-3.1,6.1c-2.7,2.6-5.4,7.9-5.4,7.9"/>
	<path class="st1" d="M131.8,904.2c0,0,3.9,1,4.1,1.7"/>
	<path class="st1" d="M143.2,905.9c0.4-0.5,9.8-1.5,13.5-1.2s14.9-0.5,14.9-0.5"/>
	<path class="st1" d="M327.9,902.5c-2.6,0.3-11.2-1-13.7-0.5c-2.6,0.5-10.4,1.5-12.5,0.6c-2.1-0.9-4.8-7.2-5-9
		c-0.3-1.8-0.8-1.7-0.8-4s1.4-14.3,1.7-15.2c0.3-0.9-0.3-1.2-0.8-2.4c-0.5-1.3-2.1-13.6-1-12.2s0-3-0.9-5.1
		c-0.9-2.2,0.4-5.8,0.8-9.1c0.4-3.3-5.8-12.7-5.8-12.7s0.6,5.1-0.6,9.4c-1.3,4.2-1.9,6.3-1.8,7.3c0.1,1,0.1,3.9,0,8
		c-0.1,4.1-0.4,2.8-0.9,6.7c-0.5,3.9,0.5,12.3,0,14.6c-0.5,2.3-1.4,2.2-1.4,2.2s0.1,5.3-1.7,12.1s-8.5,7.8-6.9,8.7
		c0,0-7.9,0.9-12.8,0.3s-7.5,0.5-11-0.4c-3.6-0.9-10.3,0.1-12.3-1.5c-2.1-1.7-6.8-3.7-7.5-7.1c-0.6-3.3-1.2-6.3,0.9-7.6
		c0,0-1.7-0.3-4.8,7.7s-9.5,11-12.5,11.5c-3,0.6-6.9,0-6.9,0c-4.4,0.6-21.3-1-23.4-1.4s-1.7-8.7-1.5-11.4c0.1-2.7,0.6-5.4,0-6.9
		c-0.6-1.5-0.9-1.7-0.8-4.2c0.1-2.6-2.6-6-3.2-6.6c-0.6-0.5-1.3,0.8-2.1,3.2s-3.3,4.5-5.3,7.7c-1.9,3.2-0.8,14.1-1.2,17
		c-0.4,2.8-2.7,4.1-2.7,4.1"/>
	<path class="st1" d="M331.9,914.2c0,0-24.8-1.7-30.5-1.2c-5.7,0.5-2.6,3-2.3,4c0.3,1,0.9,5.1,2.4,7.3c1.5,2.2,5.8,6.2,8,7.2
		c2.2,1,5.5,1.3,5.5,1.3"/>
	<path class="st1" d="M259.6,931.9c0,0,2.2-1.9,4-3.3s3,0,5.3,0s3.3-1.9,6.7-4.2c3.3-2.3,5.5-1.9,7.7-4c2.2-2.1,1.9-5.5,1.9-5.5
		s0.8,0.1-2.1,0s-18.8,0.1-21.3,0.6c-2.6,0.5-20.2,0.8-22.6,0.5c-2.4-0.3-5.3-2.9-6.4-1.2s0,3.1,1.4,5.3s4.1,1.8,3.3,4.6
		c-0.8,2.8-3.8,0.5-3.4,4.4"/>
	<path class="st1" d="M217.7,927.3c0,0,4.9-9,4.1-11c-0.8-2.1-3.6-3.8-5.4-3.3s-11.3,1.8-14.4,1.3c-3.1-0.6-8.7-0.8-9.3,0.9
		c-0.5,1.7-1.5-0.1-0.5,1.7c1,1.8,3.3,3.6,3.6,6.1s-2.6,5.6-2.6,5.6"/>
	<path class="st1" d="M180.5,929.3c0,0,3.5-4.2,4.1-6.3c0.6-2.1-0.6-2.6,0-5s0.6-1.4,0.6-2.4s-10.2-0.8-14.5-0.5
		c-4.4,0.3-8.2,1.5-11.9,1.8s-8.9,0-10.3,0.8c-1.4,0.8-5.3,1.4-5.3,1.4s0.2,2.5,1.7,3.8s2.6,0.8,5.1,2s3.9,2.3,5.3,3.6
		s6.3,3.7,9.9,4.4c3.6,0.6,0-0.3,4.4,0.9s5.3,0.6,5.3,0.6"/>
	<path class="st1" d="M68.6,977.2c4.4-0.4,8.9-5.5,10.2-8.4c1.3-2.8,6.3-5.7,7.8-6.3c1.5-0.6,2.8-2.4,4.1-5.5
		c1.3-3.1,4.1-7.5,7.1-9.6s11.2-14.5,12.1-16.6s1-6.4,1-8c0-1.6-1.5-3.2-7.7-4c-6.2-0.9-20.9-1.2-28.3-0.3c-7.3,0.9-15-0.6-20.2-0.6
		s-8.9,0.3-8.9,0.3s-0.6,0.3,0,2.4c0.6,2.1,0,3.2,2.2,4c2.2,0.8,1.7,3.2,2.2,3.8c0.5,0.6,1.9,3.3,6.8,4.2s9.3-1.2,11.3,2.4"/>
	<path class="st1" d="M-9.7,916.5c0,0,16.2-2.3,20.8-1.6s1.7,2.2,8.3,1.6c6.6-0.5,7.8-2,10.7-0.8c2.8,1.2,3.6,1,3.6,2.8
		c0,1.8,0.9,4.1-0.5,6.2c-1.4,2.1-3.9,4.1-6.3,5.7c-2.4,1.7-2.4,4-4.2,5.4c-1.8,1.4-5.6,2.1-10.5,1.3"/>
	<path class="st1" d="M21.5,936.4c0,0-1.7,3.6-5.1,6.4c-3.3,2.8-5.7,4.1-9.3,4.8s-8.9-3.1-11.7,0"/>
	<path class="st1" d="M14.1,944.6c0,0-5.8,5.8-9.6,8.8s-8.5,4.4-8.5,4.4"/>
	<path class="st1" d="M45.5,920.1c0,0,6.5,1.9,8,3.9s0.5,3.2,7.1,3.5s9.3-3.6,11.9-1.4"/>
	<path class="st1" d="M176.6,956.4c0,0-3.2,0.8-10.9-1.5c-7.7-2.3-2.8-1.4-6.7-4.5c-3.9-3.1-3.7-1.9-7.2-4.6
		c-3.5-2.7-7.7-8.5-9.5-12.1c-1.8-3.6-2.8-2.2-5.5-5.3c-2.7-3.1-3.7-6.3-3.8-7.2c-0.1-0.9,6.4-0.6,6.4-0.6s1.3,0.5,1.7,1.2
		c0.4,0.8,2,2.7,4.3,5.5c2.3,2.9,3.5,3.4,6.5,5.4c3,2.1,7.3,4.4,8.5,8.9"/>
	<path class="st1" d="M151.8,945.8c0,0,2.8,6,5.6,8.9c2.8,2.8,4.7,1.9,6.1,5.3s4.6,5.9,7.7,8.1c3.1,2.2,4.6-0.6,7.2,3"/>
	<path class="st1" d="M118.6,923.7c0,0-4.8,3.4-7.3,7.5c-2.4,4.1-6.6,12.6-8.2,14s-4.6,3.5-6.7,6.6c-2.1,3.1-4.2,3.6-4.9,6.6
		c-0.6,3-1.8,4-3.5,6.3s-5,3.1-5.5,7.3c-0.5,4.2,2.8,6.3,0.8,11.2c-2.1,4.9-8.1,8.9-8.1,8.9"/>
	<path class="st1" d="M87.6,965.2c0,0-1,5,0,8.4c1,3.5,3,5.3,2.4,10.3s-0.9,7.3,1.2,8.1"/>
	<path class="st1" d="M118.1,922.1c0,0,2.7,7.1,1.3,12.3c-1.3,5.2-4.7,8.5-6.1,12.2c-1.5,3.7-3.9,6.4-6.1,8c-2.2,1.5-7.2,4.9-8,6.9
		s-2.2,6-4,8c-1.8,1.9-2.1,2.1-2.7,2.4"/>
	<path class="st1" d="M130.1,921.3c0,0-0.8,2.2-0.5,4.7c0.3,2.5,1.2,8.5,3.4,12.5s1.6,4.9,4.9,7.2c3.3,2.3,8.8,5.4,10.6,7.1
		c1.8,1.7,3.5,2.4,4.5,5.5c1,3.1,3.1,5.7,3.1,5.7"/>
	<path class="st1" d="M123.4,927.8c0,0-1.6,10-4.3,14.7c-2.7,4.7-3.7,6.1-4.4,8.9c-0.6,2.8-3,4-2.7,8.7s0.9,5.7,0.5,9
		s-3.3,6.4-3.9,8.1"/>
	<path class="st1" d="M112.5,952.3c0,0-4.9,3.2-6.3,6c-1.4,2.8-1.2,5.6-1.5,6.9c-0.4,1.2,0.6,4.8-0.9,9.1c-1.5,4.2-3.9,4.5-4.2,8"/>
	<path class="st1" d="M102.3,959.9c0,0,3,6.9,2.2,11"/>
	<path class="st1" d="M126.2,927.4c0,0-0.4,10.9,0,18.4c0.4,7.5,0.4,9.3,1.9,12.1c1.5,2.8,4.9,4.4,5.6,7.3c0.8,2.9-0.9,3.7,3.2,5.2
		c4.1,1.5,8-1.4,9.1,2.8c1.2,4.2,1.4,5.4,1.4,5.4"/>
	<path class="st1" d="M123.4,925.2c0,0-0.3,18.1,0,21.1c0.3,3,0.9,4.5,0.3,10.3c-0.6,5.8-2.3,3.6-2.8,8.9c-0.5,5.3,0,2.3-1,6.5
		s-2,3.2-4.5,6c-2.4,2.8-5.2,3.5-5.5,7.1c-0.3,3.6,0,5.4,0,5.4"/>
	<path class="st1" d="M43.8,921.9c0,0,4.5,5,4.4,7c-0.1,2-0.5,5.5,3.3,9.7s4.3,3.6,7.6,6.1c3.2,2.5,4.8,5.1,4.5,8.6"/>
	<path class="st1" d="M35.2,924.3c0,0-0.1,7.9,1.6,11c1.7,3,1.7,0.1,1.9,4.8s-2.5,5.6-1.8,11.8c0.7,6.3-1.2,4.3,1.8,8.6
		c3,4.3,5.4,5.2,3.7,8.1"/>
	<path class="st1" d="M38.7,939.7c0,0-1.6,6.6-4.1,8.4c-2.5,1.7-5.2,0-6.2,3.9c-0.9,3.9-2.9,7.1-5.8,7.4"/>
	<path class="st2" d="M30.3,949.5c0,0-2.1,3.6-1,6.3c1.1,2.8,3.2,5.9,2.2,9.1c-1.1,3.2-3.2,4.4-3.2,4.4"/>
	<path class="st2" d="M46.5,957.7c0,0-5-6.6-4.9-9.4c0.1-2.8-0.4-8.3-2.8-8.4"/>
	<path class="st2" d="M48.7,934.1c0,0,5,4.1,9.1,5.2c4.1,1.1,8-1.1,10.8,1.8c2.8,2.9,2.8,4.9,2.8,4.9"/>
	<path class="st2" d="M17.6,941.7c0,0-1.6,4.8-1.2,7.8c0.4,3.1,0.7,2.7,0.6,5.4c-0.1,2.7,1.6,2.2-0.6,5c-2.2,2.8-3.4,3-3.4,3"/>
	<path class="st2" d="M26.8,930.3c0,0-2.6,1.2-4.6,0.9c-1.9-0.3-4.5-0.8-6.6-0.4s-6,0-6,0"/>
	<path class="st2" d="M35.9,932.5c0,0,0.8,2.9,0,4.8s-2.3,1-3.4,4.3"/>
	<path class="st1" d="M38.7,922.9c0,0-0.2,6.3,1.8,7.9s4.2,2.5,4.6,4.5c0.4,2-1,4.2,1.8,7.9s4.4,2.9,5.3,5.4"/>
	<path class="st2" d="M45.7,940.9c0,0,0.3,1.8,0.8,5.1s2.3,1.9,2.2,5.4c-0.2,3.5-0.8,4.4-0.8,4.4"/>
	<path class="st2" d="M41.5,923.7c0,0,6.1,4,6.6,5.6"/>
	<path class="st2" d="M28.2,907.2c0,0-2,1.6-5.6,1.7c-3.6,0.1-8.9-2.3-10.9-0.6"/>
	<path class="st2" d="M38.7,876.1c0,0,2.2,2.1,3.4,4.5s2.1,3.8,2.1,3.8"/>
	<path class="st2" d="M45.5,887c0,0-1.8,2.6-4,3.7c-2.2,1.1-4.6,0.7-4.6,0.7"/>
	<path class="st2" d="M34.4,888.4c0,0,2.5,1.5,3.4,4s0.9,5.3,2.8,6.9c1.9,1.6,3.5,1.4,3.5,1.4"/>
	<path class="st2" d="M36.9,893.9c0,0-0.3,5.8,2.4,7.5c2.6,1.7,4.5,0.9,4.5,0.9"/>
	<path class="st2" d="M93.6,951.8c0,0-6.6,0.6-8.6,3c-2.1,2.3-3.3,4.6-6.2,4.7"/>
	<path class="st2" d="M69.8,969.4c0,0,2.1-4.7,4.4-5.4c2.4-0.7,3.2-1.2,4.6-2s1.8-1.4,2.9-1.5c1.1-0.1,6.1-0.3,6.2,1.1"/>
	<path class="st2" d="M73.7,964.2c-1.4,1.7-4.8,0.6-5.6-0.2"/>
	<path class="st2" d="M84.3,955.6c0,0-2.4,0.3-4.1,0"/>
	<path class="st2" d="M110.6,927.8c0,0-3.1,3.7-5.9,5.4c-2.8,1.7-7.4,2.8-8,3.9s-0.9,1.6-2.7,1.5s-3.6,0.4-4.8,2.1
		c-1.2,1.7-5.6,9.2-9.6,10.5"/>
	<path class="st2" d="M78.2,943c0,0,1.6-1.6,4.4-1.3c2.8,0.3,5.8-0.7,7.2-1.7"/>
	<path class="st2" d="M110.3,921.3c0,0,0.4,1.3-1.6,3.3s-5,0.8-6.6,3.2s-2.1,4.9-4.9,5.1"/>
	<path class="st2" d="M90.8,928.9c0,0,1.5,1.7,5,1.5c3.5-0.2,5.9-1.9,5.9-1.9"/>
	<path class="st2" d="M123.3,944.2c0,0-0.5,4.4-1.9,6.9s-2.7,1.8-2.8,4.5c-0.1,2.6-1.6,6.3-3,6.6"/>
	<path class="st2" d="M121.8,961.9c0,0-0.3,8.1,0.6,9.5c0.9,1.4,1.2,4.8,0.9,5.8c-0.3,1.1,0.4,5.2,2.1,6.7"/>
	<path class="st2" d="M134.9,969.4c0,0-0.1,4.7-1,6.4c-0.9,1.7-1.2,3.9,0,5.6"/>
	<path class="st2" d="M138.2,946c0,0-0.2,2.8,1.8,5.1s5,1.3,5.7,4.5s1.5,5.9,3.3,7.7s2.4,2,2.1,3.1"/>
	<path class="st2" d="M140,951.2c0,0,1.4,1.3,1.3,4.1c-0.1,2.8,0.8,4.6,0.8,4.6"/>
	<path class="st2" d="M141.4,932.2c0,0,3,1.6,4.3,2.9c1.2,1.2,5,5.8,7.8,5.7"/>
	<path class="st2" d="M150.9,932.2c0,0,4.7,0.6,6.5,1.8c1.8,1.2,0.4,3.4,5.3,3.7"/>
	<path class="st2" d="M132.2,936.9c0,0,0.6,3.3,0.3,7c-0.3,3.7-2.5,6.3-1.3,9.2"/>
	<path class="st2" d="M121,888.4c0,0,4.2,1.8,6.7,1.9s6.2,0.1,8.8-0.6"/>
	<path class="st2" d="M138.2,885.6c0,0-6.2,0.9-12.2,0"/>
	<path class="st2" d="M121.7,885.8c0,0,2,1.6,4.4,1.6"/>
	<path class="st2" d="M125.6,846.2c0,0,7.4,1.8,12.6,1.8"/>
	<path class="st2" d="M141.7,850.3c0,0-7.2,1.1-12.5,0"/>
	<path class="st2" d="M129.5,795.3c0,0,3.7,0.4,9.5,0.7c5.8,0.3,6.3,0,6.3,0"/>
	<path class="st2" d="M144.3,799.7c0,0-3.8,1.1-7.3,0.6c-3.5-0.5-5.1-0.2-5.1-0.2"/>
	<path class="st2" d="M56.7,905.9c0,0,7.7,0,10.7,0.2"/>
	<path class="st2" d="M43.1,917.9c0,0,1.7-1,7.6-1.3"/>
	<path class="st2" d="M62.1,915.4c0,0,11,0,15-0.7"/>
	<path class="st2" d="M173.4,904.2c0,0-1.5,4.2-8.3,3.8"/>
	<path class="st2" d="M173.4,885.1c0,0,6.9,2,10.8-1.4"/>
	<path class="st2" d="M174.4,887.4c0,0,3.9,13.2,11.8,16"/>
	<path class="st2" d="M232.3,892.1c0,0-0.9,5.4,1.6,8s7.2,3.8,11.7,4.2"/>
	<path class="st1" d="M229.8,918.5c0,0,3.3,3.3,2.3,6.1c-1,2.8-1.7,6.2,0,7.3"/>
	<path class="st1" d="M223.8,920.6c0,0-2.3,9.6-8.7,12.9"/>
	<path class="st1" d="M220.6,928c0,0-5.3,3.5-7.5,4c-2.2,0.5-6.9,3.3-8.4,5.6c-1.5,2.2-2,4.9-3.1,4.8"/>
	<path class="st1" d="M211.3,932.7c0,0-3.6,6.3-4,10.1c-0.4,3.8,1.5,4.8,0.7,8.5"/>
	<path class="st1" d="M184.4,923.5c0,0,0.1,7.2-0.3,11.7s-1.5,9.2-5.3,10.6"/>
	<path class="st1" d="M183.7,935.5c0,0,4.8,3.5,4.9,11c0.1,7.5-4,8.2-4.3,8.2"/>
	<path class="st1" d="M188.7,947.8c0,0,0.6,9.1,3.2,11.2c2.6,2.1,6.8,1.4,4.8,4.3"/>
	<path class="st1" d="M184.4,926.7c0,0,6,2.6,6.8,5.6c0.8,3,3.2,5.9,5.7,4.6"/>
	<path class="st1" d="M187.2,928.4c0,0-0.5,5.5,2.7,9.3c3.2,3.8,5.8,2.5,4.9,6"/>
	<path class="st1" d="M209.3,936.7c0,0,0,8.7,1.3,9.1"/>
	<path class="st1" d="M229.2,920.9c0,0-3.5,14.8-1.2,18.8c2.4,3.9,6,2.8,5.5,6.7s-0.3,7.3,0.1,7.8"/>
	<path class="st2" d="M223.1,922.6c0,0-1.2,15.7-6.2,18.1"/>
	<path class="st1" d="M227.2,936.5c0,0-2.8,5.2-0.8,8.9s4.2,3.3,2.7,6.6"/>
	<path class="st1" d="M225.7,941.2c0,0-0.9,5.9-4.5,8.3c-3.6,2.4-6.6,4-7.2,5.9"/>
	<path class="st1" d="M284.5,918.9c0,0-2.2,10.3-4.1,12.8s-2,4.7-2.7,6.3c-0.8,1.6-3.6,3.3-6.4,4.9s-4.2,5.8-8.4,6.7"/>
	<path class="st1" d="M293.1,917.4c0,0,2,11.3,0.6,15.3c-1.4,4-4.1,3.1-4.3,8.1c-0.2,5-2.8,9.4-4.2,9.9"/>
	<path class="st1" d="M286.5,924.6c0,0-4,6-3.9,10c0.1,4.1,3,1.6,0.3,6.6c-2.7,5-3.4,3.5-3.9,6.5"/>
	<path class="st1" d="M295.5,932.7c0,0-0.7,2.7,0.4,6s2.3,3.5,2.1,7.1c-0.2,3.6,1.3,6.3,1.5,6.6"/>
	<path class="st1" d="M301.8,927.6c0,0,2.5,1.3,2.8,5.9c0.3,4.6-0.9,5.4,0.9,8.5"/>
	<path class="st2" d="M283.1,924.6c0,0-3,3.8-4.7,4.9c-1.7,1.1-3-0.5-5.5,2.4s-1.5,3.1-3.2,4.6"/>
	<path class="st2" d="M284.4,928.5c0,0-0.1,4.5,0.8,5.9c0.8,1.5,1.6,2.1,1.2,5.1"/>
	<path class="st2" d="M300.3,921.7c0,0-1.9,4-1.8,6.7c0.1,2.7,2.6,2.4,1.8,6.2"/>
	<path class="st2" d="M287.4,847.1c0,0,3.9,7.4,8.1,9.3"/>
	<path class="st2" d="M294.2,855.6c0,0-5.3,8.9-7.7,10.2"/>
	<path class="st2" d="M297.6,874.5c0,0-9.1-5.3-10.3-9.2"/>
	<path class="st2" d="M295.5,873.1c0,0-2.2,5.8-10.4,7.9"/>
	<path class="st2" d="M285.3,882.3c0,0,6.7,12.8,12.3,14.1"/>
	<path class="st2" d="M285.5,889.3c0,0,0,14.4-11.1,15.7"/>
	<path class="st2" d="M288.8,892.6c0,0,6,5.7,9.7,5.6"/>
	<path class="st2" d="M320.5,904.7c0,0-9.5,0.6-13,1.2c-3.5,0.6-12.3-0.6-12.3-0.6"/>
</g>
<image style="overflow:visible;enable-background:new    ;" width="2000" height="3793" id="AI_x5F_Image.psd_00000118362760474395578960000005039756857680584890_" xlink:href="tree.jpg"  transform="matrix(0.184 0 0 0.184 -24.6837 -5.016)">
</image>
<text transform="matrix(1 0 0 1 67.5076 801.3605)" class="st3 st4">Nodo</text>
<text transform="matrix(1 0 0 1 79.9763 868.1451)" class="st3 st4">Culmó</text>
<text transform="matrix(1 0 0 1 28.8171 995.1687)" class="st3 st4">Raíces</text>
<text transform="matrix(1 0 0 1 221.3652 823.8575)" class="st3 st4">Nueva sección</text>
<text transform="matrix(1 0 0 1 167.6957 865.5461)" class="st3 st4">Brotes</text>
<line class="st5" x1="112.1" y1="798.2" x2="133" y2="798.2"/>
<line class="st5" x1="248.7" y1="911.3" x2="248.7" y2="959.9"/>
<text transform="matrix(1 0 0 1 41.9656 774.4097)" class="st6 st4">Caña madura</text>
<g>
	<text transform="matrix(1 0 0 1 237.3945 976.2752)" class="st3 st4">Rizomas</text>
</g>
<g>
	<text transform="matrix(1 0 0 1 275.583 35.2537)" class="st3 st4">34m</text>
</g>
<g>
	<text transform="matrix(1 0 0 1 253.5863 599.8771)" class="st3 st4">Escala</text>
	<text transform="matrix(1 0 0 1 253.5863 616.6769)" class="st3 st4">humana</text>
</g>
<ellipse transform="matrix(3.327795e-02 -0.9994 0.9994 3.327795e-02 -511.4781 776.9347)" class="st7" cx="145.9" cy="652.9" rx="30.6" ry="30.6"/>
<g>
	<g>
		<line class="st7" x1="145.9" y1="683.5" x2="145.9" y2="739.2"/>
		<g>
			<polygon class="st8" points="142.8,736.7 143.4,736.2 145.9,738.9 148.4,736.2 148.9,736.7 145.9,740 			"/>
		</g>
	</g>
</g>
</svg>
